<svg width="234" height="174" viewBox="0 0 234 174" fill="none" xmlns="http://www.w3.org/2000/svg">
<path d="M68.1442 173.675C54.0959 173.621 42.0078 170.163 31.88 163.303C21.8066 156.442 14.0473 146.504 8.60227 133.491C3.21165 120.477 0.543561 104.822 0.598011 86.527C0.598011 68.286 3.29332 52.7403 8.68395 39.8899C14.129 27.0395 21.8883 17.2656 31.9616 10.5682C42.0895 3.81628 54.1503 0.440335 68.1442 0.440335C82.138 0.440335 94.1716 3.81628 104.245 10.5682C114.373 17.3201 122.159 27.1212 127.604 39.9716C133.049 52.7675 135.745 68.286 135.69 86.527C135.69 104.877 132.968 120.559 127.523 133.572C122.132 146.586 114.4 156.523 104.327 163.384C94.2533 170.245 82.1925 173.675 68.1442 173.675ZM68.1442 144.354C77.7275 144.354 85.3778 139.535 91.0952 129.897C96.8125 120.259 99.6439 105.803 99.5895 86.527C99.5895 73.84 98.2827 63.2765 95.669 54.8366C93.1099 46.3968 89.4617 40.0533 84.7244 35.8061C80.0417 31.5589 74.5149 29.4354 68.1442 29.4354C58.6153 29.4354 50.9922 34.1998 45.2749 43.7287C39.5575 53.2576 36.6716 67.5237 36.6172 86.527C36.6172 99.3774 37.8968 110.104 40.456 118.707C43.0696 127.256 46.745 133.681 51.4822 137.983C56.2195 142.23 61.7734 144.354 68.1442 144.354ZM233.681 2.72727V170H198.316V36.2962H197.335L159.029 60.3089V28.9453L200.439 2.72727H233.681Z" fill="white" fill-opacity="0.15"/>
</svg>
