<svg width="281" height="174" viewBox="0 0 281 174" fill="none" xmlns="http://www.w3.org/2000/svg">
<path d="M68.1442 173.675C54.0959 173.621 42.0078 170.163 31.88 163.303C21.8066 156.442 14.0473 146.504 8.60227 133.491C3.21165 120.477 0.543561 104.822 0.598011 86.527C0.598011 68.286 3.29332 52.7403 8.68395 39.8899C14.129 27.0395 21.8883 17.2656 31.9616 10.5682C42.0895 3.81628 54.1503 0.440335 68.1442 0.440335C82.138 0.440335 94.1716 3.81628 104.245 10.5682C114.373 17.3201 122.159 27.1212 127.604 39.9716C133.049 52.7675 135.745 68.286 135.69 86.527C135.69 104.877 132.968 120.559 127.523 133.572C122.132 146.586 114.4 156.523 104.327 163.384C94.2533 170.245 82.1925 173.675 68.1442 173.675ZM68.1442 144.354C77.7275 144.354 85.3778 139.535 91.0952 129.897C96.8125 120.259 99.6439 105.803 99.5895 86.527C99.5895 73.84 98.2827 63.2765 95.669 54.8366C93.1099 46.3968 89.4617 40.0533 84.7244 35.8061C80.0417 31.5589 74.5149 29.4354 68.1442 29.4354C58.6153 29.4354 50.9922 34.1998 45.2749 43.7287C39.5575 53.2576 36.6716 67.5237 36.6172 86.527C36.6172 99.3774 37.8968 110.104 40.456 118.707C43.0696 127.256 46.745 133.681 51.4822 137.983C56.2195 142.23 61.7734 144.354 68.1442 144.354ZM160.908 170V144.517L220.45 89.3857C225.514 84.4851 229.761 80.0746 233.191 76.1541C236.676 72.2337 239.317 68.3949 241.114 64.6378C242.911 60.8262 243.809 56.7152 243.809 52.3047C243.809 47.4041 242.693 43.1842 240.46 39.6449C238.228 36.0511 235.179 33.3014 231.313 31.3956C227.447 29.4354 223.063 28.4553 218.163 28.4553C213.044 28.4553 208.579 29.4898 204.768 31.5589C200.956 33.6281 198.016 36.5956 195.947 40.4616C193.878 44.3276 192.843 48.9287 192.843 54.2649H159.274C159.274 43.3203 161.752 33.8187 166.707 25.7599C171.662 17.7012 178.604 11.4666 187.534 7.0561C196.464 2.64559 206.755 0.440335 218.408 0.440335C230.387 0.440335 240.814 2.56392 249.69 6.81108C258.62 11.0038 265.562 16.83 270.517 24.2898C275.472 31.7495 277.95 40.2983 277.95 49.9361C277.95 56.2524 276.697 62.487 274.193 68.6399C271.742 74.7928 267.359 81.6264 261.043 89.1406C254.727 96.6004 245.824 105.558 234.335 116.012L209.914 139.943V141.087H280.155V170H160.908Z" fill="white" fill-opacity="0.15"/>
</svg>
