<svg width="288" height="174" viewBox="0 0 288 174" fill="none" xmlns="http://www.w3.org/2000/svg">
<path d="M68.1442 173.675C54.0959 173.621 42.0078 170.163 31.88 163.303C21.8066 156.442 14.0473 146.504 8.60227 133.491C3.21165 120.477 0.543561 104.822 0.598011 86.527C0.598011 68.286 3.29332 52.7403 8.68395 39.8899C14.129 27.0395 21.8883 17.2656 31.9616 10.5682C42.0895 3.81628 54.1503 0.440335 68.1442 0.440335C82.138 0.440335 94.1716 3.81628 104.245 10.5682C114.373 17.3201 122.159 27.1212 127.604 39.9716C133.049 52.7675 135.745 68.286 135.69 86.527C135.69 104.877 132.968 120.559 127.523 133.572C122.132 146.586 114.4 156.523 104.327 163.384C94.2533 170.245 82.1925 173.675 68.1442 173.675ZM68.1442 144.354C77.7275 144.354 85.3778 139.535 91.0952 129.897C96.8125 120.259 99.6439 105.803 99.5895 86.527C99.5895 73.84 98.2827 63.2765 95.669 54.8366C93.1099 46.3968 89.4617 40.0533 84.7244 35.8061C80.0417 31.5589 74.5149 29.4354 68.1442 29.4354C58.6153 29.4354 50.9922 34.1998 45.2749 43.7287C39.5575 53.2576 36.6716 67.5237 36.6172 86.527C36.6172 99.3774 37.8968 110.104 40.456 118.707C43.0696 127.256 46.745 133.681 51.4822 137.983C56.2195 142.23 61.7734 144.354 68.1442 144.354ZM222.737 172.287C210.54 172.287 199.677 170.191 190.148 165.998C180.673 161.751 173.186 155.924 167.687 148.519C162.242 141.059 159.438 132.456 159.274 122.71H194.885C195.103 126.793 196.437 130.387 198.887 133.491C201.392 136.54 204.713 138.909 208.852 140.597C212.99 142.285 217.646 143.129 222.818 143.129C228.209 143.129 232.973 142.176 237.112 140.27C241.25 138.364 244.49 135.723 246.831 132.347C249.173 128.971 250.343 125.078 250.343 120.668C250.343 116.203 249.091 112.255 246.586 108.825C244.136 105.34 240.597 102.617 235.968 100.657C231.394 98.6967 225.949 97.7166 219.633 97.7166H204.033V71.7436H219.633C224.969 71.7436 229.679 70.8179 233.763 68.9666C237.901 67.1153 241.114 64.5561 243.401 61.2891C245.688 57.9676 246.831 54.1016 246.831 49.6911C246.831 45.4983 245.824 41.8229 243.809 38.6648C241.849 35.4522 239.072 32.9474 235.478 31.1506C231.939 29.3537 227.801 28.4553 223.063 28.4553C218.272 28.4553 213.888 29.3265 209.914 31.0689C205.939 32.7569 202.753 35.1799 200.357 38.3381C197.962 41.4962 196.682 45.1989 196.519 49.446H162.623C162.786 39.8082 165.536 31.3139 170.872 23.9631C176.209 16.6122 183.396 10.8677 192.435 6.7294C201.528 2.53669 211.792 0.440335 223.227 0.440335C234.77 0.440335 244.871 2.53669 253.529 6.7294C262.186 10.9221 268.911 16.585 273.703 23.718C278.549 30.7966 280.945 38.7464 280.89 47.5675C280.945 56.933 278.031 64.7467 272.151 71.0085C266.325 77.2704 258.729 81.2453 249.363 82.9332V84.2401C261.669 85.8191 271.035 90.0935 277.46 97.0632C283.939 103.978 287.152 112.636 287.097 123.036C287.152 132.565 284.402 141.032 278.848 148.438C273.349 155.843 265.753 161.669 256.061 165.916C246.368 170.163 235.26 172.287 222.737 172.287Z" fill="white" fill-opacity="0.15"/>
</svg>
